<?xml version="1.0" encoding="UTF-8"?>
<svg width="1300px" height="174px" viewBox="0 0 1300 174" version="1.1" xmlns="http://www.w3.org/2000/svg" xmlns:xlink="http://www.w3.org/1999/xlink">
    <!-- Generator: Sketch 52.2 (67145) - http://www.bohemiancoding.com/sketch -->
    <title>hero-bottom</title>
    <desc>Created with Sketch.</desc>
    <g id="Page-1" stroke="none" stroke-width="1" fill="none" fill-rule="evenodd">
        <g id="irma-akli" transform="translate(0.000000, -469.000000)" fill="#FFFFFF">
            <path d="M0,483.053061 C60.8265889,503.558043 106.628098,513.810534 137.404527,513.810534 C144.054081,513.810534 204.443492,493.113021 244.401091,492.155809 C265.693226,491.645742 340.601062,514.390372 386.663871,513.810534 C402.672645,513.609015 474.107752,540.602096 498.610009,540.015104 C525.733057,539.365327 594.487385,517.211357 650,513.810534 C668.97188,512.648275 727.464147,556.835034 757.030506,555.28052 C790.84844,553.502471 851.624917,482.398262 927.125601,492.155809 C987.551392,499.96511 1004.81543,513.810534 1043.68148,513.810534 C1072.69158,513.810534 1139.49009,477.131509 1193.24583,470.078979 C1218.51565,466.763684 1254.10037,471.088378 1300,483.053061 L1300,643 L0,643 L0,483.053061 Z" id="hero-bottom"></path>
        </g>
    </g>
</svg>